{
    "asset" : {
        "generator" : "Khronos glTF Blender I/O v1.7.33",
        "version" : "2.0"
    },
    "scene" : 0,
    "scenes" : [
        {
            "name" : "Scene",
            "nodes" : [
                1
            ]
        }
    ],
    "nodes" : [
        {
            "mesh" : 0,
            "name" : "Cube.001",
            "rotation" : [
                0,
                0.7071068286895752,
                0,
                0.7071068286895752
            ],
            "scale" : [
                0.19205839931964874,
                0.3190620541572571,
                0.005403609946370125
            ],
            "translation" : [
                -0.8981233239173889,
                0.3419806957244873,
                0.7096156477928162
            ]
        },
        {
            "children" : [
                0
            ],
            "name" : "Plane.004",
            "rotation" : [
                0,
                -0.7071067690849304,
                0,
                0.7071068286895752
            ],
            "scale" : [
                2.0377197265625,
                2.8408591747283936,
                2.1179816722869873
            ]
        }
    ],
    "materials" : [
        {
            "doubleSided" : true,
            "name" : "Material.004",
            "pbrMetallicRoughness" : {
                "baseColorFactor" : [
                    0.5528650879859924,
                    0.5528650879859924,
                    0.5528650879859924,
                    1
                ],
                "metallicFactor" : 0,
                "roughnessFactor" : 0.5
            }
        },
        {
            "doubleSided" : true,
            "name" : "Material.002",
            "pbrMetallicRoughness" : {
                "baseColorFactor" : [
                    0.800000011920929,
                    0.800000011920929,
                    0.800000011920929,
                    1
                ],
                "roughnessFactor" : 0.15000000596046448
            }
        }
    ],
    "meshes" : [
        {
            "name" : "Cube.007",
            "primitives" : [
                {
                    "attributes" : {
                        "POSITION" : 0,
                        "NORMAL" : 1,
                        "TEXCOORD_0" : 2
                    },
                    "indices" : 3,
                    "material" : 0
                },
                {
                    "attributes" : {
                        "POSITION" : 4,
                        "NORMAL" : 5,
                        "TEXCOORD_0" : 6
                    },
                    "indices" : 7,
                    "material" : 1
                }
            ]
        }
    ],
    "accessors" : [
        {
            "bufferView" : 0,
            "componentType" : 5126,
            "count" : 145,
            "max" : [
                1.9997859001159668,
                1.0000001192092896,
                1.0000019073486328
            ],
            "min" : [
                -0.00021409988403320312,
                -0.9999998807907104,
                -0.9999980926513672
            ],
            "type" : "VEC3"
        },
        {
            "bufferView" : 1,
            "componentType" : 5126,
            "count" : 145,
            "type" : "VEC3"
        },
        {
            "bufferView" : 2,
            "componentType" : 5126,
            "count" : 145,
            "type" : "VEC2"
        },
        {
            "bufferView" : 3,
            "componentType" : 5123,
            "count" : 300,
            "type" : "SCALAR"
        },
        {
            "bufferView" : 4,
            "componentType" : 5126,
            "count" : 534,
            "max" : [
                1.8989473581314087,
                0.040824081748723984,
                7.822248935699463
            ],
            "min" : [
                1.7170130014419556,
                -0.04082384333014488,
                1.0399971008300781
            ],
            "type" : "VEC3"
        },
        {
            "bufferView" : 5,
            "componentType" : 5126,
            "count" : 534,
            "type" : "VEC3"
        },
        {
            "bufferView" : 6,
            "componentType" : 5126,
            "count" : 534,
            "type" : "VEC2"
        },
        {
            "bufferView" : 7,
            "componentType" : 5123,
            "count" : 1668,
            "type" : "SCALAR"
        }
    ],
    "bufferViews" : [
        {
            "buffer" : 0,
            "byteLength" : 1740,
            "byteOffset" : 0
        },
        {
            "buffer" : 0,
            "byteLength" : 1740,
            "byteOffset" : 1740
        },
        {
            "buffer" : 0,
            "byteLength" : 1160,
            "byteOffset" : 3480
        },
        {
            "buffer" : 0,
            "byteLength" : 600,
            "byteOffset" : 4640
        },
        {
            "buffer" : 0,
            "byteLength" : 6408,
            "byteOffset" : 5240
        },
        {
            "buffer" : 0,
            "byteLength" : 6408,
            "byteOffset" : 11648
        },
        {
            "buffer" : 0,
            "byteLength" : 4272,
            "byteOffset" : 18056
        },
        {
            "buffer" : 0,
            "byteLength" : 3336,
            "byteOffset" : 22328
        }
    ],
    "buffers" : [
        {
            "byteLength" : 25664,
            "uri" : "data:application/octet-stream;base64,"
        }
    ]
}
