{
    "asset" : {
        "generator" : "Khronos glTF Blender I/O v1.7.33",
        "version" : "2.0"
    },
    "scene" : 0,
    "scenes" : [
        {
            "name" : "Scene",
            "nodes" : [
                0
            ]
        }
    ],
    "nodes" : [
        {
            "mesh" : 0,
            "name" : "Retopo_Cube",
            "translation" : [
                0,
                0.23874960839748383,
                0
            ]
        }
    ],
    "materials" : [
        {
            "alphaMode" : "BLEND",
            "name" : "myes.001",
            "pbrMetallicRoughness" : {
                "baseColorFactor" : [
                    1,
                    1,
                    1,
                    0.9045454263687134
                ],
                "baseColorTexture" : {
                    "index" : 0
                },
                "metallicFactor" : 0.09090918302536011,
                "roughnessFactor" : 0
            }
        }
    ],
    "meshes" : [
        {
            "name" : "mesh",
            "primitives" : [
                {
                    "attributes" : {
                        "POSITION" : 0,
                        "NORMAL" : 1,
                        "TEXCOORD_0" : 2
                    },
                    "indices" : 3,
                    "material" : 0
                }
            ]
        }
    ],
    "textures" : [
        {
            "sampler" : 0,
            "source" : 0
        }
    ],
    "images" : [
        {
            "bufferView" : 4,
            "mimeType" : "image/png",
            "name" : "c37249cb860d95a9a5139137b52cc97f"
        }
    ],
    "accessors" : [
        {
            "bufferView" : 0,
            "componentType" : 5126,
            "count" : 2859,
            "max" : [
                0.18811358511447906,
                0.29412350058555603,
                0.23462963104248047
            ],
            "min" : [
                -0.18838444352149963,
                -0.23882077634334564,
                -0.2277984470129013
            ],
            "type" : "VEC3"
        },
        {
            "bufferView" : 1,
            "componentType" : 5126,
            "count" : 2859,
            "type" : "VEC3"
        },
        {
            "bufferView" : 2,
            "componentType" : 5126,
            "count" : 2859,
            "type" : "VEC2"
        },
        {
            "bufferView" : 3,
            "componentType" : 5123,
            "count" : 16002,
            "type" : "SCALAR"
        }
    ],
    "bufferViews" : [
        {
            "buffer" : 0,
            "byteLength" : 34308,
            "byteOffset" : 0
        },
        {
            "buffer" : 0,
            "byteLength" : 34308,
            "byteOffset" : 34308
        },
        {
            "buffer" : 0,
            "byteLength" : 22872,
            "byteOffset" : 68616
        },
        {
            "buffer" : 0,
            "byteLength" : 32004,
            "byteOffset" : 91488
        },
        {
            "buffer" : 0,
            "byteLength" : 307066,
            "byteOffset" : 123492
        }
    ],
    "samplers" : [
        {
            "magFilter" : 9729,
            "minFilter" : 9987
        }
    ],
    "buffers" : [
        {
            "byteLength" : 430560,
            "uri" : "data:application/octet-stream;base64,"
        }
    ]
}
