{
    "asset" : {
        "generator" : "Khronos glTF Blender I/O v1.7.33",
        "version" : "2.0"
    },
    "scene" : 0,
    "scenes" : [
        {
            "name" : "Scene",
            "nodes" : [
                1
            ]
        }
    ],
    "nodes" : [
        {
            "mesh" : 0,
            "name" : "TVSCREEN",
            "scale" : [
                3.2936551570892334,
                4.038889408111572,
                3.44931697845459
            ],
            "translation" : [
                0,
                0,
                0.3485138416290283
            ]
        },
        {
            "children" : [
                0
            ],
            "mesh" : 1,
            "name" : "Cube.003",
            "rotation" : [
                0,
                -0.5822501182556152,
                0,
                0.8130098581314087
            ],
            "scale" : [
                0.3036140501499176,
                0.24759282171726227,
                0.28991249203681946
            ],
            "translation" : [
                0.6874901652336121,
                0.3153546452522278,
                -0.3953912854194641
            ]
        }
    ],
    "materials" : [
        {
            "doubleSided" : true,
            "name" : "Material.013",
            "pbrMetallicRoughness" : {
                "baseColorFactor" : [
                    0,
                    0,
                    0,
                    1
                ],
                "metallicFactor" : 0,
                "roughnessFactor" : 0.09545454382896423
            }
        },
        {
            "doubleSided" : true,
            "name" : "ambientCG/Plastic004/1K-JPG",
            "pbrMetallicRoughness" : {
                "baseColorTexture" : {
                    "index" : 0
                },
                "metallicFactor" : 0
            }
        },
        {
            "doubleSided" : true,
            "name" : "Plug",
            "pbrMetallicRoughness" : {
                "baseColorFactor" : [
                    0,
                    0,
                    0,
                    1
                ],
                "metallicFactor" : 0,
                "roughnessFactor" : 0.36818182468414307
            }
        },
        {
            "alphaMode" : "BLEND",
            "doubleSided" : true,
            "name" : "glasstv",
            "pbrMetallicRoughness" : {
                "baseColorTexture" : {
                    "index" : 1
                },
                "metallicFactor" : 0,
                "roughnessFactor" : 0.5
            }
        },
        {
            "doubleSided" : true,
            "name" : "button",
            "pbrMetallicRoughness" : {
                "baseColorFactor" : [
                    0.982398509979248,
                    1,
                    0.8509623408317566,
                    1
                ],
                "metallicFactor" : 0,
                "roughnessFactor" : 0
            }
        }
    ],
    "meshes" : [
        {
            "name" : "Cube.006",
            "primitives" : [
                {
                    "attributes" : {
                        "POSITION" : 0,
                        "NORMAL" : 1,
                        "TEXCOORD_0" : 2
                    },
                    "indices" : 3,
                    "material" : 0
                }
            ]
        },
        {
            "name" : "Cube.003",
            "primitives" : [
                {
                    "attributes" : {
                        "POSITION" : 4,
                        "NORMAL" : 5,
                        "TEXCOORD_0" : 6
                    },
                    "indices" : 7,
                    "material" : 1
                },
                {
                    "attributes" : {
                        "POSITION" : 8,
                        "NORMAL" : 9,
                        "TEXCOORD_0" : 10
                    },
                    "indices" : 11,
                    "material" : 2
                },
                {
                    "attributes" : {
                        "POSITION" : 12,
                        "NORMAL" : 13,
                        "TEXCOORD_0" : 14
                    },
                    "indices" : 15,
                    "material" : 3
                },
                {
                    "attributes" : {
                        "POSITION" : 16,
                        "NORMAL" : 17,
                        "TEXCOORD_0" : 18
                    },
                    "indices" : 19,
                    "material" : 4
                }
            ]
        }
    ],
    "textures" : [
        {
            "sampler" : 0,
            "source" : 0
        },
        {
            "sampler" : 1,
            "source" : 1
        }
    ],
    "images" : [
        {
            "bufferView" : 8,
            "mimeType" : "image/jpeg",
            "name" : "Plastic004_1K_Color"
        },
        {
            "bufferView" : 17,
            "mimeType" : "image/png",
            "name" : "glasstv"
        }
    ],
    "accessors" : [
        {
            "bufferView" : 0,
            "componentType" : 5126,
            "count" : 21,
            "max" : [
                0.2591644525527954,
                0.21134471893310547,
                0.013745307922363281
            ],
            "min" : [
                -0.2591644525527954,
                -0.21134495735168457,
                -0.006044745445251465
            ],
            "type" : "VEC3"
        },
        {
            "bufferView" : 1,
            "componentType" : 5126,
            "count" : 21,
            "type" : "VEC3"
        },
        {
            "bufferView" : 2,
            "componentType" : 5126,
            "count" : 21,
            "type" : "VEC2"
        },
        {
            "bufferView" : 3,
            "componentType" : 5123,
            "count" : 72,
            "type" : "SCALAR"
        },
        {
            "bufferView" : 4,
            "componentType" : 5126,
            "count" : 140,
            "max" : [
                1,
                1,
                0.40362560749053955
            ],
            "min" : [
                -1,
                -1.0504504442214966,
                -1
            ],
            "type" : "VEC3"
        },
        {
            "bufferView" : 5,
            "componentType" : 5126,
            "count" : 140,
            "type" : "VEC3"
        },
        {
            "bufferView" : 6,
            "componentType" : 5126,
            "count" : 140,
            "type" : "VEC2"
        },
        {
            "bufferView" : 7,
            "componentType" : 5123,
            "count" : 474,
            "type" : "SCALAR"
        },
        {
            "bufferView" : 9,
            "componentType" : 5126,
            "count" : 349,
            "max" : [
                -0.6146451234817505,
                -0.3264979124069214,
                0.227708101272583
            ],
            "min" : [
                -2.478760242462158,
                -1.0394880771636963,
                -0.8672070503234863
            ],
            "type" : "VEC3"
        },
        {
            "bufferView" : 10,
            "componentType" : 5126,
            "count" : 349,
            "type" : "VEC3"
        },
        {
            "bufferView" : 11,
            "componentType" : 5126,
            "count" : 349,
            "type" : "VEC2"
        },
        {
            "bufferView" : 12,
            "componentType" : 5123,
            "count" : 1764,
            "type" : "SCALAR"
        },
        {
            "bufferView" : 13,
            "componentType" : 5126,
            "count" : 4,
            "max" : [
                0.13640005886554718,
                -0.8726102113723755,
                0.4068126380443573
            ],
            "min" : [
                -0.1364029198884964,
                -0.9988850355148315,
                0.3780956566333771
            ],
            "type" : "VEC3"
        },
        {
            "bufferView" : 14,
            "componentType" : 5126,
            "count" : 4,
            "type" : "VEC3"
        },
        {
            "bufferView" : 15,
            "componentType" : 5126,
            "count" : 4,
            "type" : "VEC2"
        },
        {
            "bufferView" : 16,
            "componentType" : 5123,
            "count" : 6,
            "type" : "SCALAR"
        },
        {
            "bufferView" : 18,
            "componentType" : 5126,
            "count" : 190,
            "max" : [
                0.5566238760948181,
                -0.8968813419342041,
                0.3963935673236847
            ],
            "min" : [
                0.25626078248023987,
                -0.9367018342018127,
                0.36259567737579346
            ],
            "type" : "VEC3"
        },
        {
            "bufferView" : 19,
            "componentType" : 5126,
            "count" : 190,
            "type" : "VEC3"
        },
        {
            "bufferView" : 20,
            "componentType" : 5126,
            "count" : 190,
            "type" : "VEC2"
        },
        {
            "bufferView" : 21,
            "componentType" : 5123,
            "count" : 480,
            "type" : "SCALAR"
        }
    ],
    "bufferViews" : [
        {
            "buffer" : 0,
            "byteLength" : 252,
            "byteOffset" : 0
        },
        {
            "buffer" : 0,
            "byteLength" : 252,
            "byteOffset" : 252
        },
        {
            "buffer" : 0,
            "byteLength" : 168,
            "byteOffset" : 504
        },
        {
            "buffer" : 0,
            "byteLength" : 144,
            "byteOffset" : 672
        },
        {
            "buffer" : 0,
            "byteLength" : 1680,
            "byteOffset" : 816
        },
        {
            "buffer" : 0,
            "byteLength" : 1680,
            "byteOffset" : 2496
        },
        {
            "buffer" : 0,
            "byteLength" : 1120,
            "byteOffset" : 4176
        },
        {
            "buffer" : 0,
            "byteLength" : 948,
            "byteOffset" : 5296
        },
        {
            "buffer" : 0,
            "byteLength" : 29004,
            "byteOffset" : 6244
        },
        {
            "buffer" : 0,
            "byteLength" : 4188,
            "byteOffset" : 35248
        },
        {
            "buffer" : 0,
            "byteLength" : 4188,
            "byteOffset" : 39436
        },
        {
            "buffer" : 0,
            "byteLength" : 2792,
            "byteOffset" : 43624
        },
        {
            "buffer" : 0,
            "byteLength" : 3528,
            "byteOffset" : 46416
        },
        {
            "buffer" : 0,
            "byteLength" : 48,
            "byteOffset" : 49944
        },
        {
            "buffer" : 0,
            "byteLength" : 48,
            "byteOffset" : 49992
        },
        {
            "buffer" : 0,
            "byteLength" : 32,
            "byteOffset" : 50040
        },
        {
            "buffer" : 0,
            "byteLength" : 12,
            "byteOffset" : 50072
        },
        {
            "buffer" : 0,
            "byteLength" : 2853,
            "byteOffset" : 50084
        },
        {
            "buffer" : 0,
            "byteLength" : 2280,
            "byteOffset" : 52940
        },
        {
            "buffer" : 0,
            "byteLength" : 2280,
            "byteOffset" : 55220
        },
        {
            "buffer" : 0,
            "byteLength" : 1520,
            "byteOffset" : 57500
        },
        {
            "buffer" : 0,
            "byteLength" : 960,
            "byteOffset" : 59020
        }
    ],
    "samplers" : [
        {
            "magFilter" : 9729,
            "minFilter" : 9987
        },
        {
            "magFilter" : 9729,
            "minFilter" : 9987,
            "wrapS" : 33071,
            "wrapT" : 33071
        }
    ],
    "buffers" : [
        {
            "byteLength" : 59980,
            "uri" : "data:application/octet-stream;base64,"
        }
    ]
}
