{
    "asset" : {
        "generator" : "Khronos glTF Blender I/O v1.7.33",
        "version" : "2.0"
    },
    "scene" : 0,
    "scenes" : [
        {
            "name" : "Scene",
            "nodes" : [
                0,
                1,
                2,
                3,
                4
            ]
        }
    ],
    "nodes" : [
        {
            "mesh" : 0,
            "name" : "glassheadborder",
            "rotation" : [
                0.11670627444982529,
                0.11670626699924469,
                0.6974092125892639,
                0.6974092721939087
            ],
            "scale" : [
                0.06142697483301163,
                0.0949142575263977,
                0.23772281408309937
            ],
            "translation" : [
                0.5755783319473267,
                0.17695023119449615,
                -0.35685697197914124
            ]
        },
        {
            "mesh" : 1,
            "name" : "TV",
            "rotation" : [
                0,
                -0.5822501182556152,
                0,
                0.8130098581314087
            ],
            "scale" : [
                0.3036140501499176,
                0.24759282171726227,
                0.28991252183914185
            ],
            "translation" : [
                0.6874901652336121,
                0.3153546452522278,
                -0.3953912854194641
            ]
        },
        {
            "mesh" : 2,
            "name" : "TVSCREEN",
            "rotation" : [
                0,
                -0.58225017786026,
                0,
                0.8130096793174744
            ],
            "translation" : [
                0.5918319225311279,
                0.31535476446151733,
                -0.36286014318466187
            ]
        },
        {
            "mesh" : 3,
            "name" : "glassheadtext",
            "rotation" : [
                0.5819581151008606,
                -0.4083099663257599,
                0.42281731963157654,
                0.5619904398918152
            ],
            "scale" : [
                0.07087862491607666,
                0.07087862491607666,
                0.07087861746549606
            ],
            "translation" : [
                0.5795266628265381,
                0.16151568293571472,
                -0.35813987255096436
            ]
        },
        {
            "mesh" : 4,
            "name" : "back",
            "rotation" : [
                0.5810407400131226,
                -0.40297845005989075,
                0.40297847986221313,
                0.5810407400131226
            ],
            "scale" : [
                0.012766980566084385,
                0.012766980566084385,
                0.012766980566084385
            ],
            "translation" : [
                0.4916245937347412,
                0.5036779642105103,
                -0.5770851373672485
            ]
        }
    ],
    "materials" : [
        {
            "doubleSided" : true,
            "name" : "Material.012",
            "pbrMetallicRoughness" : {
                "baseColorFactor" : [
                    0.8000000715255737,
                    0,
                    0.001575891743414104,
                    1
                ],
                "metallicFactor" : 0,
                "roughnessFactor" : 0
            }
        },
        {
            "doubleSided" : true,
            "name" : "ambientCG/Plastic004/1K-JPG",
            "pbrMetallicRoughness" : {
                "baseColorTexture" : {
                    "index" : 0
                },
                "metallicFactor" : 0
            }
        },
        {
            "doubleSided" : true,
            "name" : "Plug",
            "pbrMetallicRoughness" : {
                "baseColorFactor" : [
                    0,
                    0,
                    0,
                    1
                ],
                "metallicFactor" : 0,
                "roughnessFactor" : 0.36818182468414307
            }
        },
        {
            "alphaMode" : "BLEND",
            "doubleSided" : true,
            "name" : "glasstv",
            "pbrMetallicRoughness" : {
                "baseColorTexture" : {
                    "index" : 1
                },
                "metallicFactor" : 0,
                "roughnessFactor" : 0.5
            }
        },
        {
            "doubleSided" : true,
            "name" : "button",
            "pbrMetallicRoughness" : {
                "baseColorFactor" : [
                    0.982398509979248,
                    1,
                    0.8509623408317566,
                    1
                ],
                "metallicFactor" : 0,
                "roughnessFactor" : 0
            }
        },
        {
            "doubleSided" : true,
            "name" : "Material.013",
            "pbrMetallicRoughness" : {
                "baseColorFactor" : [
                    0,
                    0,
                    0,
                    1
                ],
                "metallicFactor" : 0,
                "roughnessFactor" : 0.09545454382896423
            }
        },
        {
            "doubleSided" : true,
            "name" : "Material.014",
            "pbrMetallicRoughness" : {
                "baseColorFactor" : [
                    0.800000011920929,
                    0.800000011920929,
                    0.800000011920929,
                    1
                ],
                "metallicFactor" : 0,
                "roughnessFactor" : 0
            }
        },
        {
            "doubleSided" : true,
            "name" : "Material.063",
            "pbrMetallicRoughness" : {
                "baseColorFactor" : [
                    1,
                    0.0017934582429006696,
                    0.005954986438155174,
                    1
                ],
                "metallicFactor" : 0,
                "roughnessFactor" : 0
            }
        }
    ],
    "meshes" : [
        {
            "name" : "Plane.001",
            "primitives" : [
                {
                    "attributes" : {
                        "POSITION" : 0,
                        "NORMAL" : 1,
                        "TEXCOORD_0" : 2
                    },
                    "indices" : 3,
                    "material" : 0
                }
            ]
        },
        {
            "name" : "Cube.003",
            "primitives" : [
                {
                    "attributes" : {
                        "POSITION" : 4,
                        "NORMAL" : 5,
                        "TEXCOORD_0" : 6
                    },
                    "indices" : 7,
                    "material" : 1
                },
                {
                    "attributes" : {
                        "POSITION" : 8,
                        "NORMAL" : 9,
                        "TEXCOORD_0" : 10
                    },
                    "indices" : 11,
                    "material" : 2
                },
                {
                    "attributes" : {
                        "POSITION" : 12,
                        "NORMAL" : 13,
                        "TEXCOORD_0" : 14
                    },
                    "indices" : 15,
                    "material" : 3
                },
                {
                    "attributes" : {
                        "POSITION" : 16,
                        "NORMAL" : 17,
                        "TEXCOORD_0" : 18
                    },
                    "indices" : 19,
                    "material" : 4
                }
            ]
        },
        {
            "name" : "Cube.006",
            "primitives" : [
                {
                    "attributes" : {
                        "POSITION" : 20,
                        "NORMAL" : 21,
                        "TEXCOORD_0" : 22
                    },
                    "indices" : 23,
                    "material" : 5
                }
            ]
        },
        {
            "name" : "Text.001",
            "primitives" : [
                {
                    "attributes" : {
                        "POSITION" : 24,
                        "NORMAL" : 25,
                        "TEXCOORD_0" : 26
                    },
                    "indices" : 27,
                    "material" : 6
                }
            ]
        },
        {
            "name" : "Plane.005",
            "primitives" : [
                {
                    "attributes" : {
                        "POSITION" : 28,
                        "NORMAL" : 29,
                        "TEXCOORD_0" : 30
                    },
                    "indices" : 31,
                    "material" : 7
                }
            ]
        }
    ],
    "textures" : [
        {
            "sampler" : 0,
            "source" : 0
        },
        {
            "sampler" : 1,
            "source" : 1
        }
    ],
    "images" : [
        {
            "bufferView" : 8,
            "mimeType" : "image/jpeg",
            "name" : "Plastic004_1K_Color"
        },
        {
            "bufferView" : 17,
            "mimeType" : "image/png",
            "name" : "glasstv"
        }
    ],
    "accessors" : [
        {
            "bufferView" : 0,
            "componentType" : 5126,
            "count" : 28,
            "max" : [
                0.9166667461395264,
                0,
                0.9166667461395264
            ],
            "min" : [
                -0.9166667461395264,
                0,
                -0.9166667461395264
            ],
            "type" : "VEC3"
        },
        {
            "bufferView" : 1,
            "componentType" : 5126,
            "count" : 28,
            "type" : "VEC3"
        },
        {
            "bufferView" : 2,
            "componentType" : 5126,
            "count" : 28,
            "type" : "VEC2"
        },
        {
            "bufferView" : 3,
            "componentType" : 5123,
            "count" : 96,
            "type" : "SCALAR"
        },
        {
            "bufferView" : 4,
            "componentType" : 5126,
            "count" : 140,
            "max" : [
                1,
                1,
                0.40362560749053955
            ],
            "min" : [
                -1,
                -1.0504504442214966,
                -1
            ],
            "type" : "VEC3"
        },
        {
            "bufferView" : 5,
            "componentType" : 5126,
            "count" : 140,
            "type" : "VEC3"
        },
        {
            "bufferView" : 6,
            "componentType" : 5126,
            "count" : 140,
            "type" : "VEC2"
        },
        {
            "bufferView" : 7,
            "componentType" : 5123,
            "count" : 474,
            "type" : "SCALAR"
        },
        {
            "bufferView" : 9,
            "componentType" : 5126,
            "count" : 349,
            "max" : [
                -0.6146451234817505,
                -0.3264979124069214,
                0.227708101272583
            ],
            "min" : [
                -2.478760242462158,
                -1.0394880771636963,
                -0.8672070503234863
            ],
            "type" : "VEC3"
        },
        {
            "bufferView" : 10,
            "componentType" : 5126,
            "count" : 349,
            "type" : "VEC3"
        },
        {
            "bufferView" : 11,
            "componentType" : 5126,
            "count" : 349,
            "type" : "VEC2"
        },
        {
            "bufferView" : 12,
            "componentType" : 5123,
            "count" : 1764,
            "type" : "SCALAR"
        },
        {
            "bufferView" : 13,
            "componentType" : 5126,
            "count" : 4,
            "max" : [
                0.13640005886554718,
                -0.8726102113723755,
                0.4068126380443573
            ],
            "min" : [
                -0.1364029198884964,
                -0.9988850355148315,
                0.3780956566333771
            ],
            "type" : "VEC3"
        },
        {
            "bufferView" : 14,
            "componentType" : 5126,
            "count" : 4,
            "type" : "VEC3"
        },
        {
            "bufferView" : 15,
            "componentType" : 5126,
            "count" : 4,
            "type" : "VEC2"
        },
        {
            "bufferView" : 16,
            "componentType" : 5123,
            "count" : 6,
            "type" : "SCALAR"
        },
        {
            "bufferView" : 18,
            "componentType" : 5126,
            "count" : 190,
            "max" : [
                0.5566238760948181,
                -0.8968813419342041,
                0.3963935673236847
            ],
            "min" : [
                0.25626078248023987,
                -0.9367018342018127,
                0.36259567737579346
            ],
            "type" : "VEC3"
        },
        {
            "bufferView" : 19,
            "componentType" : 5126,
            "count" : 190,
            "type" : "VEC3"
        },
        {
            "bufferView" : 20,
            "componentType" : 5126,
            "count" : 190,
            "type" : "VEC2"
        },
        {
            "bufferView" : 21,
            "componentType" : 5123,
            "count" : 480,
            "type" : "SCALAR"
        },
        {
            "bufferView" : 22,
            "componentType" : 5126,
            "count" : 21,
            "max" : [
                0.2591644525527954,
                0.21134471893310547,
                0.013745307922363281
            ],
            "min" : [
                -0.2591644525527954,
                -0.21134495735168457,
                -0.006044745445251465
            ],
            "type" : "VEC3"
        },
        {
            "bufferView" : 23,
            "componentType" : 5126,
            "count" : 21,
            "type" : "VEC3"
        },
        {
            "bufferView" : 24,
            "componentType" : 5126,
            "count" : 21,
            "type" : "VEC2"
        },
        {
            "bufferView" : 25,
            "componentType" : 5123,
            "count" : 72,
            "type" : "SCALAR"
        },
        {
            "bufferView" : 26,
            "componentType" : 5126,
            "count" : 11308,
            "max" : [
                1.8270931243896484,
                0.21128901839256287,
                0.2951706051826477
            ],
            "min" : [
                -1.826412558555603,
                0,
                -0.7113682627677917
            ],
            "type" : "VEC3"
        },
        {
            "bufferView" : 27,
            "componentType" : 5126,
            "count" : 11308,
            "type" : "VEC3"
        },
        {
            "bufferView" : 28,
            "componentType" : 5126,
            "count" : 11308,
            "type" : "VEC2"
        },
        {
            "bufferView" : 29,
            "componentType" : 5123,
            "count" : 17808,
            "type" : "SCALAR"
        },
        {
            "bufferView" : 30,
            "componentType" : 5126,
            "count" : 58,
            "max" : [
                3.6672677993774414,
                1.0160995721817017,
                2.406808376312256
            ],
            "min" : [
                -3.266022205352783,
                -1.0621105417385479e-07,
                -2.406797409057617
            ],
            "type" : "VEC3"
        },
        {
            "bufferView" : 31,
            "componentType" : 5126,
            "count" : 58,
            "type" : "VEC3"
        },
        {
            "bufferView" : 32,
            "componentType" : 5126,
            "count" : 58,
            "type" : "VEC2"
        },
        {
            "bufferView" : 33,
            "componentType" : 5123,
            "count" : 96,
            "type" : "SCALAR"
        }
    ],
    "bufferViews" : [
        {
            "buffer" : 0,
            "byteLength" : 336,
            "byteOffset" : 0
        },
        {
            "buffer" : 0,
            "byteLength" : 336,
            "byteOffset" : 336
        },
        {
            "buffer" : 0,
            "byteLength" : 224,
            "byteOffset" : 672
        },
        {
            "buffer" : 0,
            "byteLength" : 192,
            "byteOffset" : 896
        },
        {
            "buffer" : 0,
            "byteLength" : 1680,
            "byteOffset" : 1088
        },
        {
            "buffer" : 0,
            "byteLength" : 1680,
            "byteOffset" : 2768
        },
        {
            "buffer" : 0,
            "byteLength" : 1120,
            "byteOffset" : 4448
        },
        {
            "buffer" : 0,
            "byteLength" : 948,
            "byteOffset" : 5568
        },
        {
            "buffer" : 0,
            "byteLength" : 29004,
            "byteOffset" : 6516
        },
        {
            "buffer" : 0,
            "byteLength" : 4188,
            "byteOffset" : 35520
        },
        {
            "buffer" : 0,
            "byteLength" : 4188,
            "byteOffset" : 39708
        },
        {
            "buffer" : 0,
            "byteLength" : 2792,
            "byteOffset" : 43896
        },
        {
            "buffer" : 0,
            "byteLength" : 3528,
            "byteOffset" : 46688
        },
        {
            "buffer" : 0,
            "byteLength" : 48,
            "byteOffset" : 50216
        },
        {
            "buffer" : 0,
            "byteLength" : 48,
            "byteOffset" : 50264
        },
        {
            "buffer" : 0,
            "byteLength" : 32,
            "byteOffset" : 50312
        },
        {
            "buffer" : 0,
            "byteLength" : 12,
            "byteOffset" : 50344
        },
        {
            "buffer" : 0,
            "byteLength" : 2853,
            "byteOffset" : 50356
        },
        {
            "buffer" : 0,
            "byteLength" : 2280,
            "byteOffset" : 53212
        },
        {
            "buffer" : 0,
            "byteLength" : 2280,
            "byteOffset" : 55492
        },
        {
            "buffer" : 0,
            "byteLength" : 1520,
            "byteOffset" : 57772
        },
        {
            "buffer" : 0,
            "byteLength" : 960,
            "byteOffset" : 59292
        },
        {
            "buffer" : 0,
            "byteLength" : 252,
            "byteOffset" : 60252
        },
        {
            "buffer" : 0,
            "byteLength" : 252,
            "byteOffset" : 60504
        },
        {
            "buffer" : 0,
            "byteLength" : 168,
            "byteOffset" : 60756
        },
        {
            "buffer" : 0,
            "byteLength" : 144,
            "byteOffset" : 60924
        },
        {
            "buffer" : 0,
            "byteLength" : 135696,
            "byteOffset" : 61068
        },
        {
            "buffer" : 0,
            "byteLength" : 135696,
            "byteOffset" : 196764
        },
        {
            "buffer" : 0,
            "byteLength" : 90464,
            "byteOffset" : 332460
        },
        {
            "buffer" : 0,
            "byteLength" : 35616,
            "byteOffset" : 422924
        },
        {
            "buffer" : 0,
            "byteLength" : 696,
            "byteOffset" : 458540
        },
        {
            "buffer" : 0,
            "byteLength" : 696,
            "byteOffset" : 459236
        },
        {
            "buffer" : 0,
            "byteLength" : 464,
            "byteOffset" : 459932
        },
        {
            "buffer" : 0,
            "byteLength" : 192,
            "byteOffset" : 460396
        }
    ],
    "samplers" : [
        {
            "magFilter" : 9729,
            "minFilter" : 9987
        },
        {
            "magFilter" : 9729,
            "minFilter" : 9987,
            "wrapS" : 33071,
            "wrapT" : 33071
        }
    ],
    "buffers" : [
        {
            "byteLength" : 460588,
            "uri" : "data:application/octet-stream;base64,"
        }
    ]
}
