{
    "asset" : {
        "generator" : "Khronos glTF Blender I/O v1.7.33",
        "version" : "2.0"
    },
    "scene" : 0,
    "scenes" : [
        {
            "name" : "Scene",
            "nodes" : [
                3
            ]
        }
    ],
    "nodes" : [
        {
            "mesh" : 0,
            "name" : "gtagCart",
            "rotation" : [
                0.5142753720283508,
                0,
                -0.8576251268386841,
                0
            ],
            "scale" : [
                0.16374680399894714,
                0.10405324399471283,
                0.027986254543066025
            ],
            "translation" : [
                0.34900861978530884,
                -0.18563973903656006,
                0.5570263862609863
            ]
        },
        {
            "mesh" : 1,
            "name" : "helloCart",
            "rotation" : [
                0.548874020576477,
                0,
                -0.8359050750732422,
                0
            ],
            "scale" : [
                0.16374678909778595,
                0.10405324399471283,
                0.02798626571893692
            ],
            "translation" : [
                0.662958562374115,
                -0.18563973903656006,
                0.5381841659545898
            ]
        },
        {
            "mesh" : 2,
            "name" : "ntsCart",
            "rotation" : [
                0.5142753720283508,
                0,
                -0.8576251268386841,
                0
            ],
            "scale" : [
                0.16374680399894714,
                0.10405324399471283,
                0.027986254543066025
            ],
            "translation" : [
                0.5157102942466736,
                -0.18563973903656006,
                0.5462613105773926
            ]
        },
        {
            "children" : [
                0,
                1,
                2
            ],
            "mesh" : 3,
            "name" : "Cabnet",
            "rotation" : [
                0,
                -0.6087614297866821,
                0,
                0.7933533191680908
            ],
            "scale" : [
                -0.3058995008468628,
                0.3058995008468628,
                0.3058995008468628
            ],
            "translation" : [
                2.380215883255005,
                0.3615351617336273,
                -0.593472421169281
            ]
        }
    ],
    "materials" : [
        {
            "doubleSided" : true,
            "name" : "coverart.002",
            "pbrMetallicRoughness" : {
                "baseColorTexture" : {
                    "index" : 0
                },
                "metallicFactor" : 0,
                "roughnessFactor" : 0
            }
        },
        {
            "doubleSided" : true,
            "name" : "CART.002",
            "pbrMetallicRoughness" : {
                "baseColorFactor" : [
                    0.12906725704669952,
                    0.2498859018087387,
                    0.0029927140567451715,
                    1
                ],
                "metallicFactor" : 0,
                "roughnessFactor" : 0.5727273225784302
            }
        },
        {
            "doubleSided" : true,
            "name" : "coverart",
            "pbrMetallicRoughness" : {
                "baseColorTexture" : {
                    "index" : 1
                },
                "metallicFactor" : 0,
                "roughnessFactor" : 0
            }
        },
        {
            "doubleSided" : true,
            "name" : "CART",
            "pbrMetallicRoughness" : {
                "baseColorFactor" : [
                    0.4872046113014221,
                    0.0032567975576967,
                    0.008312834426760674,
                    1
                ],
                "metallicFactor" : 0,
                "roughnessFactor" : 0.8318182229995728
            }
        },
        {
            "doubleSided" : true,
            "name" : "coverart.001",
            "pbrMetallicRoughness" : {
                "baseColorTexture" : {
                    "index" : 2
                },
                "metallicFactor" : 0,
                "roughnessFactor" : 0
            }
        },
        {
            "doubleSided" : true,
            "name" : "CART.001",
            "pbrMetallicRoughness" : {
                "baseColorFactor" : [
                    0.24988815188407898,
                    0.22129970788955688,
                    0.20588362216949463,
                    1
                ],
                "metallicFactor" : 0,
                "roughnessFactor" : 0.5727273225784302
            }
        },
        {
            "doubleSided" : true,
            "name" : "cabnetwood",
            "pbrMetallicRoughness" : {
                "baseColorTexture" : {
                    "index" : 3
                },
                "metallicFactor" : 0,
                "metallicRoughnessTexture" : {
                    "index" : 4
                }
            }
        },
        {
            "doubleSided" : true,
            "name" : "cover",
            "pbrMetallicRoughness" : {
                "baseColorTexture" : {
                    "index" : 5
                },
                "metallicFactor" : 0,
                "roughnessFactor" : 0
            }
        }
    ],
    "meshes" : [
        {
            "name" : "Cube.010",
            "primitives" : [
                {
                    "attributes" : {
                        "POSITION" : 0,
                        "NORMAL" : 1,
                        "TEXCOORD_0" : 2
                    },
                    "indices" : 3,
                    "material" : 0
                },
                {
                    "attributes" : {
                        "POSITION" : 4,
                        "NORMAL" : 5,
                        "TEXCOORD_0" : 6
                    },
                    "indices" : 7,
                    "material" : 1
                }
            ]
        },
        {
            "name" : "Cube.008",
            "primitives" : [
                {
                    "attributes" : {
                        "POSITION" : 8,
                        "NORMAL" : 9,
                        "TEXCOORD_0" : 10
                    },
                    "indices" : 3,
                    "material" : 2
                },
                {
                    "attributes" : {
                        "POSITION" : 11,
                        "NORMAL" : 12,
                        "TEXCOORD_0" : 13
                    },
                    "indices" : 7,
                    "material" : 3
                }
            ]
        },
        {
            "name" : "Cube.009",
            "primitives" : [
                {
                    "attributes" : {
                        "POSITION" : 14,
                        "NORMAL" : 15,
                        "TEXCOORD_0" : 16
                    },
                    "indices" : 3,
                    "material" : 4
                },
                {
                    "attributes" : {
                        "POSITION" : 17,
                        "NORMAL" : 18,
                        "TEXCOORD_0" : 19
                    },
                    "indices" : 7,
                    "material" : 5
                }
            ]
        },
        {
            "name" : "Cube.004",
            "primitives" : [
                {
                    "attributes" : {
                        "POSITION" : 20,
                        "NORMAL" : 21,
                        "TEXCOORD_0" : 22
                    },
                    "indices" : 23,
                    "material" : 6
                },
                {
                    "attributes" : {
                        "POSITION" : 24,
                        "NORMAL" : 25,
                        "TEXCOORD_0" : 26
                    },
                    "indices" : 27,
                    "material" : 7
                }
            ]
        }
    ],
    "textures" : [
        {
            "sampler" : 0,
            "source" : 0
        },
        {
            "sampler" : 0,
            "source" : 1
        },
        {
            "sampler" : 0,
            "source" : 2
        },
        {
            "sampler" : 0,
            "source" : 3
        },
        {
            "sampler" : 0,
            "source" : 4
        },
        {
            "sampler" : 0,
            "source" : 5
        }
    ],
    "images" : [
        {
            "bufferView" : 4,
            "mimeType" : "image/png",
            "name" : "gtag"
        },
        {
            "bufferView" : 12,
            "mimeType" : "image/png",
            "name" : "hello"
        },
        {
            "bufferView" : 19,
            "mimeType" : "image/png",
            "name" : "nothing 2 say"
        },
        {
            "bufferView" : 27,
            "mimeType" : "image/jpeg",
            "name" : "wood"
        },
        {
            "bufferView" : 28,
            "mimeType" : "image/png",
            "name" : "wood"
        },
        {
            "bufferView" : 33,
            "mimeType" : "image/png",
            "name" : "mat"
        }
    ],
    "accessors" : [
        {
            "bufferView" : 0,
            "componentType" : 5126,
            "count" : 528,
            "max" : [
                0.5726767182350159,
                0.8697609305381775,
                0.6339468955993652
            ],
            "min" : [
                -0.5712776780128479,
                -0.8712759613990784,
                -1.017878532409668
            ],
            "type" : "VEC3"
        },
        {
            "bufferView" : 1,
            "componentType" : 5126,
            "count" : 528,
            "type" : "VEC3"
        },
        {
            "bufferView" : 2,
            "componentType" : 5126,
            "count" : 528,
            "type" : "VEC2"
        },
        {
            "bufferView" : 3,
            "componentType" : 5123,
            "count" : 1494,
            "type" : "SCALAR"
        },
        {
            "bufferView" : 5,
            "componentType" : 5126,
            "count" : 705,
            "max" : [
                1.000699520111084,
                1.123268485069275,
                0.6595044136047363
            ],
            "min" : [
                -0.999300479888916,
                -1.0956346988677979,
                -1.440260887145996
            ],
            "type" : "VEC3"
        },
        {
            "bufferView" : 6,
            "componentType" : 5126,
            "count" : 705,
            "type" : "VEC3"
        },
        {
            "bufferView" : 7,
            "componentType" : 5126,
            "count" : 705,
            "type" : "VEC2"
        },
        {
            "bufferView" : 8,
            "componentType" : 5123,
            "count" : 2286,
            "type" : "SCALAR"
        },
        {
            "bufferView" : 9,
            "componentType" : 5126,
            "count" : 528,
            "max" : [
                0.5726767182350159,
                0.8697609305381775,
                0.6339468955993652
            ],
            "min" : [
                -0.5712776780128479,
                -0.8712759613990784,
                -1.017878532409668
            ],
            "type" : "VEC3"
        },
        {
            "bufferView" : 10,
            "componentType" : 5126,
            "count" : 528,
            "type" : "VEC3"
        },
        {
            "bufferView" : 11,
            "componentType" : 5126,
            "count" : 528,
            "type" : "VEC2"
        },
        {
            "bufferView" : 13,
            "componentType" : 5126,
            "count" : 705,
            "max" : [
                1.000699520111084,
                1.123268485069275,
                0.6595044136047363
            ],
            "min" : [
                -0.999300479888916,
                -1.0956346988677979,
                -1.440260887145996
            ],
            "type" : "VEC3"
        },
        {
            "bufferView" : 14,
            "componentType" : 5126,
            "count" : 705,
            "type" : "VEC3"
        },
        {
            "bufferView" : 15,
            "componentType" : 5126,
            "count" : 705,
            "type" : "VEC2"
        },
        {
            "bufferView" : 16,
            "componentType" : 5126,
            "count" : 528,
            "max" : [
                0.5726767182350159,
                0.8697609305381775,
                0.6339468955993652
            ],
            "min" : [
                -0.5712776780128479,
                -0.8712759613990784,
                -1.017878532409668
            ],
            "type" : "VEC3"
        },
        {
            "bufferView" : 17,
            "componentType" : 5126,
            "count" : 528,
            "type" : "VEC3"
        },
        {
            "bufferView" : 18,
            "componentType" : 5126,
            "count" : 528,
            "type" : "VEC2"
        },
        {
            "bufferView" : 20,
            "componentType" : 5126,
            "count" : 705,
            "max" : [
                1.000699520111084,
                1.123268485069275,
                0.6595044136047363
            ],
            "min" : [
                -0.999300479888916,
                -1.0956346988677979,
                -1.440260887145996
            ],
            "type" : "VEC3"
        },
        {
            "bufferView" : 21,
            "componentType" : 5126,
            "count" : 705,
            "type" : "VEC3"
        },
        {
            "bufferView" : 22,
            "componentType" : 5126,
            "count" : 705,
            "type" : "VEC2"
        },
        {
            "bufferView" : 23,
            "componentType" : 5126,
            "count" : 224,
            "max" : [
                0.8765996098518372,
                0.8780211210250854,
                0.9378381967544556
            ],
            "min" : [
                -0.8765996098518372,
                -0.8751782774925232,
                0.19030731916427612
            ],
            "type" : "VEC3"
        },
        {
            "bufferView" : 24,
            "componentType" : 5126,
            "count" : 224,
            "type" : "VEC3"
        },
        {
            "bufferView" : 25,
            "componentType" : 5126,
            "count" : 224,
            "type" : "VEC2"
        },
        {
            "bufferView" : 26,
            "componentType" : 5123,
            "count" : 360,
            "type" : "SCALAR"
        },
        {
            "bufferView" : 29,
            "componentType" : 5126,
            "count" : 48,
            "max" : [
                0.8747596740722656,
                0.3035212457180023,
                0.9141604900360107
            ],
            "min" : [
                -0.8747597336769104,
                -0.8455067276954651,
                0.19030731916427612
            ],
            "type" : "VEC3"
        },
        {
            "bufferView" : 30,
            "componentType" : 5126,
            "count" : 48,
            "type" : "VEC3"
        },
        {
            "bufferView" : 31,
            "componentType" : 5126,
            "count" : 48,
            "type" : "VEC2"
        },
        {
            "bufferView" : 32,
            "componentType" : 5123,
            "count" : 72,
            "type" : "SCALAR"
        }
    ],
    "bufferViews" : [
        {
            "buffer" : 0,
            "byteLength" : 6336,
            "byteOffset" : 0
        },
        {
            "buffer" : 0,
            "byteLength" : 6336,
            "byteOffset" : 6336
        },
        {
            "buffer" : 0,
            "byteLength" : 4224,
            "byteOffset" : 12672
        },
        {
            "buffer" : 0,
            "byteLength" : 2988,
            "byteOffset" : 16896
        },
        {
            "buffer" : 0,
            "byteLength" : 165804,
            "byteOffset" : 19884
        },
        {
            "buffer" : 0,
            "byteLength" : 8460,
            "byteOffset" : 185688
        },
        {
            "buffer" : 0,
            "byteLength" : 8460,
            "byteOffset" : 194148
        },
        {
            "buffer" : 0,
            "byteLength" : 5640,
            "byteOffset" : 202608
        },
        {
            "buffer" : 0,
            "byteLength" : 4572,
            "byteOffset" : 208248
        },
        {
            "buffer" : 0,
            "byteLength" : 6336,
            "byteOffset" : 212820
        },
        {
            "buffer" : 0,
            "byteLength" : 6336,
            "byteOffset" : 219156
        },
        {
            "buffer" : 0,
            "byteLength" : 4224,
            "byteOffset" : 225492
        },
        {
            "buffer" : 0,
            "byteLength" : 133826,
            "byteOffset" : 229716
        },
        {
            "buffer" : 0,
            "byteLength" : 8460,
            "byteOffset" : 363544
        },
        {
            "buffer" : 0,
            "byteLength" : 8460,
            "byteOffset" : 372004
        },
        {
            "buffer" : 0,
            "byteLength" : 5640,
            "byteOffset" : 380464
        },
        {
            "buffer" : 0,
            "byteLength" : 6336,
            "byteOffset" : 386104
        },
        {
            "buffer" : 0,
            "byteLength" : 6336,
            "byteOffset" : 392440
        },
        {
            "buffer" : 0,
            "byteLength" : 4224,
            "byteOffset" : 398776
        },
        {
            "buffer" : 0,
            "byteLength" : 102898,
            "byteOffset" : 403000
        },
        {
            "buffer" : 0,
            "byteLength" : 8460,
            "byteOffset" : 505900
        },
        {
            "buffer" : 0,
            "byteLength" : 8460,
            "byteOffset" : 514360
        },
        {
            "buffer" : 0,
            "byteLength" : 5640,
            "byteOffset" : 522820
        },
        {
            "buffer" : 0,
            "byteLength" : 2688,
            "byteOffset" : 528460
        },
        {
            "buffer" : 0,
            "byteLength" : 2688,
            "byteOffset" : 531148
        },
        {
            "buffer" : 0,
            "byteLength" : 1792,
            "byteOffset" : 533836
        },
        {
            "buffer" : 0,
            "byteLength" : 720,
            "byteOffset" : 535628
        },
        {
            "buffer" : 0,
            "byteLength" : 3612,
            "byteOffset" : 536348
        },
        {
            "buffer" : 0,
            "byteLength" : 27640,
            "byteOffset" : 539960
        },
        {
            "buffer" : 0,
            "byteLength" : 576,
            "byteOffset" : 567600
        },
        {
            "buffer" : 0,
            "byteLength" : 576,
            "byteOffset" : 568176
        },
        {
            "buffer" : 0,
            "byteLength" : 384,
            "byteOffset" : 568752
        },
        {
            "buffer" : 0,
            "byteLength" : 144,
            "byteOffset" : 569136
        },
        {
            "buffer" : 0,
            "byteLength" : 99713,
            "byteOffset" : 569280
        }
    ],
    "samplers" : [
        {
            "magFilter" : 9729,
            "minFilter" : 9987
        }
    ],
    "buffers" : [
        {
            "byteLength" : 668996,
            "uri" : "data:application/octet-stream;base64,"
        }
    ]
}
