{
    "asset" : {
        "generator" : "Khronos glTF Blender I/O v1.7.33",
        "version" : "2.0"
    },
    "scene" : 0,
    "scenes" : [
        {
            "name" : "Scene",
            "nodes" : [
                1
            ]
        }
    ],
    "nodes" : [
        {
            "mesh" : 0,
            "name" : "Cube.003",
            "rotation" : [
                0,
                0.7071068286895752,
                0,
                0.7071068286895752
            ],
            "scale" : [
                0.4721476137638092,
                0.352006196975708,
                0.49074462056159973
            ],
            "translation" : [
                0,
                0.34836581349372864,
                0
            ]
        },
        {
            "children" : [
                0
            ],
            "name" : "Plane.004",
            "rotation" : [
                0,
                -0.7071067690849304,
                0,
                0.7071068286895752
            ],
            "scale" : [
                2.0377197265625,
                2.8408591747283936,
                2.1179816722869873
            ]
        }
    ],
    "materials" : [
        {
            "doubleSided" : true,
            "name" : "ambientCG/Marble012/1K-PNG",
            "pbrMetallicRoughness" : {
                "baseColorTexture" : {
                    "index" : 0
                },
                "metallicFactor" : 0,
                "metallicRoughnessTexture" : {
                    "index" : 1
                }
            }
        }
    ],
    "meshes" : [
        {
            "name" : "Cube.005",
            "primitives" : [
                {
                    "attributes" : {
                        "POSITION" : 0,
                        "NORMAL" : 1,
                        "TEXCOORD_0" : 2
                    },
                    "indices" : 3,
                    "material" : 0
                }
            ]
        }
    ],
    "textures" : [
        {
            "sampler" : 0,
            "source" : 0
        },
        {
            "sampler" : 0,
            "source" : 1
        }
    ],
    "images" : [
        {
            "bufferView" : 4,
            "mimeType" : "image/png",
            "name" : "Marble012_1K_Color"
        },
        {
            "bufferView" : 5,
            "mimeType" : "image/png",
            "name" : "Marble012_1K_Roughness"
        }
    ],
    "accessors" : [
        {
            "bufferView" : 0,
            "componentType" : 5126,
            "count" : 8029,
            "max" : [
                0.3373725712299347,
                0.18607985973358154,
                0.3028564453125
            ],
            "min" : [
                -0.33737286925315857,
                -0.9404453635215759,
                -0.306276798248291
            ],
            "type" : "VEC3"
        },
        {
            "bufferView" : 1,
            "componentType" : 5126,
            "count" : 8029,
            "type" : "VEC3"
        },
        {
            "bufferView" : 2,
            "componentType" : 5126,
            "count" : 8029,
            "type" : "VEC2"
        },
        {
            "bufferView" : 3,
            "componentType" : 5123,
            "count" : 35802,
            "type" : "SCALAR"
        }
    ],
    "bufferViews" : [
        {
            "buffer" : 0,
            "byteLength" : 96348,
            "byteOffset" : 0
        },
        {
            "buffer" : 0,
            "byteLength" : 96348,
            "byteOffset" : 96348
        },
        {
            "buffer" : 0,
            "byteLength" : 64232,
            "byteOffset" : 192696
        },
        {
            "buffer" : 0,
            "byteLength" : 71604,
            "byteOffset" : 256928
        },
        {
            "buffer" : 0,
            "byteLength" : 1602134,
            "byteOffset" : 328532
        },
        {
            "buffer" : 0,
            "byteLength" : 967963,
            "byteOffset" : 1930668
        }
    ],
    "samplers" : [
        {
            "magFilter" : 9729,
            "minFilter" : 9987
        }
    ],
    "buffers" : [
        {
            "byteLength" : 2898632,
            "uri" : "data:application/octet-stream;base64,"
        }
    ]
}
