{
    "asset" : {
        "generator" : "Khronos glTF Blender I/O v1.7.33",
        "version" : "2.0"
    },
    "scene" : 0,
    "scenes" : [
        {
            "name" : "Scene",
            "nodes" : [
                0,
                1,
                2,
                3,
                4
            ]
        }
    ],
    "nodes" : [
        {
            "mesh" : 0,
            "name" : "back",
            "rotation" : [
                0.7071067690849304,
                0,
                0,
                0.7071068286895752
            ],
            "scale" : [
                0.016939742490649223,
                0.016939742490649223,
                0.016939742490649223
            ],
            "translation" : [
                1.0758627653121948,
                0.7370007038116455,
                -1.4301272630691528
            ]
        },
        {
            "mesh" : 1,
            "name" : "glassheadborder",
            "rotation" : [
                0.7071067690849304,
                0,
                0,
                0.7071068286895752
            ],
            "scale" : [
                0.2258874624967575,
                0.05592256784439087,
                0.020902590826153755
            ],
            "translation" : [
                1.2590491771697998,
                0.410795122385025,
                -1.4344016313552856
            ]
        },
        {
            "mesh" : 2,
            "name" : "glassheadtext",
            "rotation" : [
                0.7071067690849304,
                0,
                0,
                0.7071068286895752
            ],
            "scale" : [
                0.04846479743719101,
                0.020831182599067688,
                0.04846479743719101
            ],
            "translation" : [
                1.2590491771697998,
                0.410795122385025,
                -1.438917875289917
            ]
        },
        {
            "mesh" : 3,
            "name" : "TV",
            "scale" : [
                0.3036140501499176,
                0.24759282171726227,
                0.28991249203681946
            ],
            "translation" : [
                1.2590491771697998,
                0.5880924463272095,
                -1.5407280921936035
            ]
        },
        {
            "mesh" : 4,
            "name" : "TVSCREEN",
            "translation" : [
                1.2590491771697998,
                0.588092565536499,
                -1.4396893978118896
            ]
        }
    ],
    "materials" : [
        {
            "doubleSided" : true,
            "name" : "Material.063",
            "pbrMetallicRoughness" : {
                "baseColorFactor" : [
                    1,
                    0.0017934582429006696,
                    0.005954986438155174,
                    1
                ],
                "metallicFactor" : 0,
                "roughnessFactor" : 0
            }
        },
        {
            "doubleSided" : true,
            "name" : "Material.064",
            "pbrMetallicRoughness" : {
                "baseColorFactor" : [
                    0.8000000715255737,
                    0.004013048019260168,
                    0,
                    1
                ],
                "metallicFactor" : 0,
                "roughnessFactor" : 0
            }
        },
        {
            "doubleSided" : true,
            "name" : "CART.003",
            "pbrMetallicRoughness" : {
                "baseColorFactor" : [
                    0.9233204126358032,
                    1,
                    0.942156195640564,
                    1
                ],
                "metallicFactor" : 0,
                "roughnessFactor" : 0.8318182229995728
            }
        },
        {
            "doubleSided" : true,
            "name" : "ambientCG/Plastic004/1K-JPG",
            "pbrMetallicRoughness" : {
                "baseColorTexture" : {
                    "index" : 0
                },
                "metallicFactor" : 0
            }
        },
        {
            "doubleSided" : true,
            "name" : "Plug",
            "pbrMetallicRoughness" : {
                "baseColorFactor" : [
                    0,
                    0,
                    0,
                    1
                ],
                "metallicFactor" : 0,
                "roughnessFactor" : 0.36818182468414307
            }
        },
        {
            "alphaMode" : "BLEND",
            "doubleSided" : true,
            "name" : "glasstv",
            "pbrMetallicRoughness" : {
                "baseColorTexture" : {
                    "index" : 1
                },
                "metallicFactor" : 0,
                "roughnessFactor" : 0.5
            }
        },
        {
            "doubleSided" : true,
            "name" : "button.001",
            "pbrMetallicRoughness" : {
                "baseColorFactor" : [
                    0.982398509979248,
                    1,
                    0.8509623408317566,
                    1
                ],
                "metallicFactor" : 0,
                "roughnessFactor" : 0
            }
        },
        {
            "doubleSided" : true,
            "name" : "Material.013",
            "pbrMetallicRoughness" : {
                "baseColorFactor" : [
                    0,
                    0,
                    0,
                    1
                ],
                "metallicFactor" : 0,
                "roughnessFactor" : 0.09545454382896423
            }
        }
    ],
    "meshes" : [
        {
            "name" : "Plane",
            "primitives" : [
                {
                    "attributes" : {
                        "POSITION" : 0,
                        "NORMAL" : 1,
                        "TEXCOORD_0" : 2
                    },
                    "indices" : 3,
                    "material" : 0
                }
            ]
        },
        {
            "name" : "Plane.001",
            "primitives" : [
                {
                    "attributes" : {
                        "POSITION" : 4,
                        "NORMAL" : 5,
                        "TEXCOORD_0" : 6
                    },
                    "indices" : 7,
                    "material" : 1
                }
            ]
        },
        {
            "name" : "Text",
            "primitives" : [
                {
                    "attributes" : {
                        "POSITION" : 8,
                        "NORMAL" : 9,
                        "TEXCOORD_0" : 10
                    },
                    "indices" : 11,
                    "material" : 2
                }
            ]
        },
        {
            "name" : "Cube.003",
            "primitives" : [
                {
                    "attributes" : {
                        "POSITION" : 12,
                        "NORMAL" : 13,
                        "TEXCOORD_0" : 14
                    },
                    "indices" : 15,
                    "material" : 3
                },
                {
                    "attributes" : {
                        "POSITION" : 16,
                        "NORMAL" : 17,
                        "TEXCOORD_0" : 18
                    },
                    "indices" : 19,
                    "material" : 4
                },
                {
                    "attributes" : {
                        "POSITION" : 20,
                        "NORMAL" : 21,
                        "TEXCOORD_0" : 22
                    },
                    "indices" : 23,
                    "material" : 5
                },
                {
                    "attributes" : {
                        "POSITION" : 24,
                        "NORMAL" : 25,
                        "TEXCOORD_0" : 26
                    },
                    "indices" : 27,
                    "material" : 6
                }
            ]
        },
        {
            "name" : "Cube.006",
            "primitives" : [
                {
                    "attributes" : {
                        "POSITION" : 28,
                        "NORMAL" : 29,
                        "TEXCOORD_0" : 30
                    },
                    "indices" : 31,
                    "material" : 7
                }
            ]
        }
    ],
    "textures" : [
        {
            "sampler" : 0,
            "source" : 0
        },
        {
            "sampler" : 1,
            "source" : 1
        }
    ],
    "images" : [
        {
            "bufferView" : 16,
            "mimeType" : "image/jpeg",
            "name" : "Plastic004_1K_Color"
        },
        {
            "bufferView" : 25,
            "mimeType" : "image/png",
            "name" : "glasstv"
        }
    ],
    "accessors" : [
        {
            "bufferView" : 0,
            "componentType" : 5126,
            "count" : 58,
            "max" : [
                3.6672677993774414,
                1.0160995721817017,
                2.406808376312256
            ],
            "min" : [
                -3.266022205352783,
                -1.0621105417385479e-07,
                -2.406797409057617
            ],
            "type" : "VEC3"
        },
        {
            "bufferView" : 1,
            "componentType" : 5126,
            "count" : 58,
            "type" : "VEC3"
        },
        {
            "bufferView" : 2,
            "componentType" : 5126,
            "count" : 58,
            "type" : "VEC2"
        },
        {
            "bufferView" : 3,
            "componentType" : 5123,
            "count" : 96,
            "type" : "SCALAR"
        },
        {
            "bufferView" : 4,
            "componentType" : 5126,
            "count" : 30,
            "max" : [
                1.0485129356384277,
                2.1619954715390577e-09,
                1.133357286453247
            ],
            "min" : [
                -1.0485129356384277,
                -0.24620120227336884,
                -1.133357286453247
            ],
            "type" : "VEC3"
        },
        {
            "bufferView" : 5,
            "componentType" : 5126,
            "count" : 30,
            "type" : "VEC3"
        },
        {
            "bufferView" : 6,
            "componentType" : 5126,
            "count" : 30,
            "type" : "VEC2"
        },
        {
            "bufferView" : 7,
            "componentType" : 5123,
            "count" : 168,
            "type" : "SCALAR"
        },
        {
            "bufferView" : 8,
            "componentType" : 5126,
            "count" : 20011,
            "max" : [
                4.596037864685059,
                0.3363225758075714,
                0.3109388053417206
            ],
            "min" : [
                -4.527993202209473,
                0,
                -0.3126615881919861
            ],
            "type" : "VEC3"
        },
        {
            "bufferView" : 9,
            "componentType" : 5126,
            "count" : 20011,
            "type" : "VEC3"
        },
        {
            "bufferView" : 10,
            "componentType" : 5126,
            "count" : 20011,
            "type" : "VEC2"
        },
        {
            "bufferView" : 11,
            "componentType" : 5123,
            "count" : 31416,
            "type" : "SCALAR"
        },
        {
            "bufferView" : 12,
            "componentType" : 5126,
            "count" : 140,
            "max" : [
                1,
                1,
                0.40362560749053955
            ],
            "min" : [
                -1,
                -1.0504504442214966,
                -1
            ],
            "type" : "VEC3"
        },
        {
            "bufferView" : 13,
            "componentType" : 5126,
            "count" : 140,
            "type" : "VEC3"
        },
        {
            "bufferView" : 14,
            "componentType" : 5126,
            "count" : 140,
            "type" : "VEC2"
        },
        {
            "bufferView" : 15,
            "componentType" : 5123,
            "count" : 474,
            "type" : "SCALAR"
        },
        {
            "bufferView" : 17,
            "componentType" : 5126,
            "count" : 349,
            "max" : [
                -0.6146451234817505,
                -0.9522556662559509,
                0.227708101272583
            ],
            "min" : [
                -2.478760242462158,
                -1.4381072521209717,
                -0.8672070503234863
            ],
            "type" : "VEC3"
        },
        {
            "bufferView" : 18,
            "componentType" : 5126,
            "count" : 349,
            "type" : "VEC3"
        },
        {
            "bufferView" : 19,
            "componentType" : 5126,
            "count" : 349,
            "type" : "VEC2"
        },
        {
            "bufferView" : 20,
            "componentType" : 5123,
            "count" : 1764,
            "type" : "SCALAR"
        },
        {
            "bufferView" : 21,
            "componentType" : 5126,
            "count" : 4,
            "max" : [
                0.13640005886554718,
                -0.8726102113723755,
                0.4068126380443573
            ],
            "min" : [
                -0.1364029198884964,
                -0.9988850355148315,
                0.3780956566333771
            ],
            "type" : "VEC3"
        },
        {
            "bufferView" : 22,
            "componentType" : 5126,
            "count" : 4,
            "type" : "VEC3"
        },
        {
            "bufferView" : 23,
            "componentType" : 5126,
            "count" : 4,
            "type" : "VEC2"
        },
        {
            "bufferView" : 24,
            "componentType" : 5123,
            "count" : 6,
            "type" : "SCALAR"
        },
        {
            "bufferView" : 26,
            "componentType" : 5126,
            "count" : 190,
            "max" : [
                0.5566238760948181,
                -0.8968813419342041,
                0.3963935673236847
            ],
            "min" : [
                0.25626078248023987,
                -0.9367018342018127,
                0.36259567737579346
            ],
            "type" : "VEC3"
        },
        {
            "bufferView" : 27,
            "componentType" : 5126,
            "count" : 190,
            "type" : "VEC3"
        },
        {
            "bufferView" : 28,
            "componentType" : 5126,
            "count" : 190,
            "type" : "VEC2"
        },
        {
            "bufferView" : 29,
            "componentType" : 5123,
            "count" : 480,
            "type" : "SCALAR"
        },
        {
            "bufferView" : 30,
            "componentType" : 5126,
            "count" : 21,
            "max" : [
                0.2591644525527954,
                0.21134471893310547,
                0.013745307922363281
            ],
            "min" : [
                -0.2591644525527954,
                -0.21134495735168457,
                -0.006044745445251465
            ],
            "type" : "VEC3"
        },
        {
            "bufferView" : 31,
            "componentType" : 5126,
            "count" : 21,
            "type" : "VEC3"
        },
        {
            "bufferView" : 32,
            "componentType" : 5126,
            "count" : 21,
            "type" : "VEC2"
        },
        {
            "bufferView" : 33,
            "componentType" : 5123,
            "count" : 72,
            "type" : "SCALAR"
        }
    ],
    "bufferViews" : [
        {
            "buffer" : 0,
            "byteLength" : 696,
            "byteOffset" : 0
        },
        {
            "buffer" : 0,
            "byteLength" : 696,
            "byteOffset" : 696
        },
        {
            "buffer" : 0,
            "byteLength" : 464,
            "byteOffset" : 1392
        },
        {
            "buffer" : 0,
            "byteLength" : 192,
            "byteOffset" : 1856
        },
        {
            "buffer" : 0,
            "byteLength" : 360,
            "byteOffset" : 2048
        },
        {
            "buffer" : 0,
            "byteLength" : 360,
            "byteOffset" : 2408
        },
        {
            "buffer" : 0,
            "byteLength" : 240,
            "byteOffset" : 2768
        },
        {
            "buffer" : 0,
            "byteLength" : 336,
            "byteOffset" : 3008
        },
        {
            "buffer" : 0,
            "byteLength" : 240132,
            "byteOffset" : 3344
        },
        {
            "buffer" : 0,
            "byteLength" : 240132,
            "byteOffset" : 243476
        },
        {
            "buffer" : 0,
            "byteLength" : 160088,
            "byteOffset" : 483608
        },
        {
            "buffer" : 0,
            "byteLength" : 62832,
            "byteOffset" : 643696
        },
        {
            "buffer" : 0,
            "byteLength" : 1680,
            "byteOffset" : 706528
        },
        {
            "buffer" : 0,
            "byteLength" : 1680,
            "byteOffset" : 708208
        },
        {
            "buffer" : 0,
            "byteLength" : 1120,
            "byteOffset" : 709888
        },
        {
            "buffer" : 0,
            "byteLength" : 948,
            "byteOffset" : 711008
        },
        {
            "buffer" : 0,
            "byteLength" : 29004,
            "byteOffset" : 711956
        },
        {
            "buffer" : 0,
            "byteLength" : 4188,
            "byteOffset" : 740960
        },
        {
            "buffer" : 0,
            "byteLength" : 4188,
            "byteOffset" : 745148
        },
        {
            "buffer" : 0,
            "byteLength" : 2792,
            "byteOffset" : 749336
        },
        {
            "buffer" : 0,
            "byteLength" : 3528,
            "byteOffset" : 752128
        },
        {
            "buffer" : 0,
            "byteLength" : 48,
            "byteOffset" : 755656
        },
        {
            "buffer" : 0,
            "byteLength" : 48,
            "byteOffset" : 755704
        },
        {
            "buffer" : 0,
            "byteLength" : 32,
            "byteOffset" : 755752
        },
        {
            "buffer" : 0,
            "byteLength" : 12,
            "byteOffset" : 755784
        },
        {
            "buffer" : 0,
            "byteLength" : 2853,
            "byteOffset" : 755796
        },
        {
            "buffer" : 0,
            "byteLength" : 2280,
            "byteOffset" : 758652
        },
        {
            "buffer" : 0,
            "byteLength" : 2280,
            "byteOffset" : 760932
        },
        {
            "buffer" : 0,
            "byteLength" : 1520,
            "byteOffset" : 763212
        },
        {
            "buffer" : 0,
            "byteLength" : 960,
            "byteOffset" : 764732
        },
        {
            "buffer" : 0,
            "byteLength" : 252,
            "byteOffset" : 765692
        },
        {
            "buffer" : 0,
            "byteLength" : 252,
            "byteOffset" : 765944
        },
        {
            "buffer" : 0,
            "byteLength" : 168,
            "byteOffset" : 766196
        },
        {
            "buffer" : 0,
            "byteLength" : 144,
            "byteOffset" : 766364
        }
    ],
    "samplers" : [
        {
            "magFilter" : 9729,
            "minFilter" : 9987
        },
        {
            "magFilter" : 9729,
            "minFilter" : 9987,
            "wrapS" : 33071,
            "wrapT" : 33071
        }
    ],
    "buffers" : [
        {
            "byteLength" : 766508,
            "uri" : "data:application/octet-stream;base64,"
        }
    ]
}
