{
    "asset" : {
        "generator" : "Khronos glTF Blender I/O v1.7.33",
        "version" : "2.0"
    },
    "scene" : 0,
    "scenes" : [
        {
            "name" : "Scene",
            "nodes" : [
                0,
                1
            ]
        }
    ],
    "nodes" : [
        {
            "mesh" : 0,
            "name" : "Cube.003",
            "scale" : [
                0.3036140501499176,
                0.24759282171726227,
                0.28991249203681946
            ],
            "translation" : [
                1.2590491771697998,
                0.5880924463272095,
                -1.5407280921936035
            ]
        },
        {
            "mesh" : 1,
            "name" : "TVSCREEN",
            "translation" : [
                1.2590491771697998,
                0.588092565536499,
                -1.4396893978118896
            ]
        }
    ],
    "materials" : [
        {
            "doubleSided" : true,
            "name" : "ambientCG/Plastic004/1K-JPG",
            "pbrMetallicRoughness" : {
                "baseColorTexture" : {
                    "index" : 0
                },
                "metallicFactor" : 0
            }
        },
        {
            "doubleSided" : true,
            "name" : "Plug",
            "pbrMetallicRoughness" : {
                "baseColorFactor" : [
                    0,
                    0,
                    0,
                    1
                ],
                "metallicFactor" : 0,
                "roughnessFactor" : 0.36818182468414307
            }
        },
        {
            "alphaMode" : "BLEND",
            "doubleSided" : true,
            "name" : "glasstv",
            "pbrMetallicRoughness" : {
                "baseColorTexture" : {
                    "index" : 1
                },
                "metallicFactor" : 0,
                "roughnessFactor" : 0.5
            }
        },
        {
            "doubleSided" : true,
            "name" : "button",
            "pbrMetallicRoughness" : {
                "baseColorFactor" : [
                    0.982398509979248,
                    1,
                    0.8509623408317566,
                    1
                ],
                "metallicFactor" : 0,
                "roughnessFactor" : 0
            }
        },
        {
            "doubleSided" : true,
            "name" : "Material.013",
            "pbrMetallicRoughness" : {
                "baseColorFactor" : [
                    0,
                    0,
                    0,
                    1
                ],
                "metallicFactor" : 0,
                "roughnessFactor" : 0.09545454382896423
            }
        }
    ],
    "meshes" : [
        {
            "name" : "Cube.003",
            "primitives" : [
                {
                    "attributes" : {
                        "POSITION" : 0,
                        "NORMAL" : 1,
                        "TEXCOORD_0" : 2
                    },
                    "indices" : 3,
                    "material" : 0
                },
                {
                    "attributes" : {
                        "POSITION" : 4,
                        "NORMAL" : 5,
                        "TEXCOORD_0" : 6
                    },
                    "indices" : 7,
                    "material" : 1
                },
                {
                    "attributes" : {
                        "POSITION" : 8,
                        "NORMAL" : 9,
                        "TEXCOORD_0" : 10
                    },
                    "indices" : 11,
                    "material" : 2
                },
                {
                    "attributes" : {
                        "POSITION" : 12,
                        "NORMAL" : 13,
                        "TEXCOORD_0" : 14
                    },
                    "indices" : 15,
                    "material" : 3
                }
            ]
        },
        {
            "name" : "Cube.006",
            "primitives" : [
                {
                    "attributes" : {
                        "POSITION" : 16,
                        "NORMAL" : 17,
                        "TEXCOORD_0" : 18
                    },
                    "indices" : 19,
                    "material" : 4
                }
            ]
        }
    ],
    "textures" : [
        {
            "sampler" : 0,
            "source" : 0
        },
        {
            "sampler" : 1,
            "source" : 1
        }
    ],
    "images" : [
        {
            "bufferView" : 4,
            "mimeType" : "image/jpeg",
            "name" : "Plastic004_1K_Color"
        },
        {
            "bufferView" : 13,
            "mimeType" : "image/png",
            "name" : "glasstv"
        }
    ],
    "accessors" : [
        {
            "bufferView" : 0,
            "componentType" : 5126,
            "count" : 140,
            "max" : [
                1,
                1,
                0.40362560749053955
            ],
            "min" : [
                -1,
                -1.0504504442214966,
                -1
            ],
            "type" : "VEC3"
        },
        {
            "bufferView" : 1,
            "componentType" : 5126,
            "count" : 140,
            "type" : "VEC3"
        },
        {
            "bufferView" : 2,
            "componentType" : 5126,
            "count" : 140,
            "type" : "VEC2"
        },
        {
            "bufferView" : 3,
            "componentType" : 5123,
            "count" : 474,
            "type" : "SCALAR"
        },
        {
            "bufferView" : 5,
            "componentType" : 5126,
            "count" : 349,
            "max" : [
                -0.6146451234817505,
                -0.9522556662559509,
                0.227708101272583
            ],
            "min" : [
                -2.478760242462158,
                -1.4381072521209717,
                -0.8672070503234863
            ],
            "type" : "VEC3"
        },
        {
            "bufferView" : 6,
            "componentType" : 5126,
            "count" : 349,
            "type" : "VEC3"
        },
        {
            "bufferView" : 7,
            "componentType" : 5126,
            "count" : 349,
            "type" : "VEC2"
        },
        {
            "bufferView" : 8,
            "componentType" : 5123,
            "count" : 1764,
            "type" : "SCALAR"
        },
        {
            "bufferView" : 9,
            "componentType" : 5126,
            "count" : 4,
            "max" : [
                0.13640005886554718,
                -0.8726102113723755,
                0.4068126380443573
            ],
            "min" : [
                -0.1364029198884964,
                -0.9988850355148315,
                0.3780956566333771
            ],
            "type" : "VEC3"
        },
        {
            "bufferView" : 10,
            "componentType" : 5126,
            "count" : 4,
            "type" : "VEC3"
        },
        {
            "bufferView" : 11,
            "componentType" : 5126,
            "count" : 4,
            "type" : "VEC2"
        },
        {
            "bufferView" : 12,
            "componentType" : 5123,
            "count" : 6,
            "type" : "SCALAR"
        },
        {
            "bufferView" : 14,
            "componentType" : 5126,
            "count" : 190,
            "max" : [
                0.5566238760948181,
                -0.8968813419342041,
                0.3963935673236847
            ],
            "min" : [
                0.25626078248023987,
                -0.9367018342018127,
                0.36259567737579346
            ],
            "type" : "VEC3"
        },
        {
            "bufferView" : 15,
            "componentType" : 5126,
            "count" : 190,
            "type" : "VEC3"
        },
        {
            "bufferView" : 16,
            "componentType" : 5126,
            "count" : 190,
            "type" : "VEC2"
        },
        {
            "bufferView" : 17,
            "componentType" : 5123,
            "count" : 480,
            "type" : "SCALAR"
        },
        {
            "bufferView" : 18,
            "componentType" : 5126,
            "count" : 21,
            "max" : [
                0.2591644525527954,
                0.21134471893310547,
                0.013745307922363281
            ],
            "min" : [
                -0.2591644525527954,
                -0.21134495735168457,
                -0.006044745445251465
            ],
            "type" : "VEC3"
        },
        {
            "bufferView" : 19,
            "componentType" : 5126,
            "count" : 21,
            "type" : "VEC3"
        },
        {
            "bufferView" : 20,
            "componentType" : 5126,
            "count" : 21,
            "type" : "VEC2"
        },
        {
            "bufferView" : 21,
            "componentType" : 5123,
            "count" : 72,
            "type" : "SCALAR"
        }
    ],
    "bufferViews" : [
        {
            "buffer" : 0,
            "byteLength" : 1680,
            "byteOffset" : 0
        },
        {
            "buffer" : 0,
            "byteLength" : 1680,
            "byteOffset" : 1680
        },
        {
            "buffer" : 0,
            "byteLength" : 1120,
            "byteOffset" : 3360
        },
        {
            "buffer" : 0,
            "byteLength" : 948,
            "byteOffset" : 4480
        },
        {
            "buffer" : 0,
            "byteLength" : 29004,
            "byteOffset" : 5428
        },
        {
            "buffer" : 0,
            "byteLength" : 4188,
            "byteOffset" : 34432
        },
        {
            "buffer" : 0,
            "byteLength" : 4188,
            "byteOffset" : 38620
        },
        {
            "buffer" : 0,
            "byteLength" : 2792,
            "byteOffset" : 42808
        },
        {
            "buffer" : 0,
            "byteLength" : 3528,
            "byteOffset" : 45600
        },
        {
            "buffer" : 0,
            "byteLength" : 48,
            "byteOffset" : 49128
        },
        {
            "buffer" : 0,
            "byteLength" : 48,
            "byteOffset" : 49176
        },
        {
            "buffer" : 0,
            "byteLength" : 32,
            "byteOffset" : 49224
        },
        {
            "buffer" : 0,
            "byteLength" : 12,
            "byteOffset" : 49256
        },
        {
            "buffer" : 0,
            "byteLength" : 2853,
            "byteOffset" : 49268
        },
        {
            "buffer" : 0,
            "byteLength" : 2280,
            "byteOffset" : 52124
        },
        {
            "buffer" : 0,
            "byteLength" : 2280,
            "byteOffset" : 54404
        },
        {
            "buffer" : 0,
            "byteLength" : 1520,
            "byteOffset" : 56684
        },
        {
            "buffer" : 0,
            "byteLength" : 960,
            "byteOffset" : 58204
        },
        {
            "buffer" : 0,
            "byteLength" : 252,
            "byteOffset" : 59164
        },
        {
            "buffer" : 0,
            "byteLength" : 252,
            "byteOffset" : 59416
        },
        {
            "buffer" : 0,
            "byteLength" : 168,
            "byteOffset" : 59668
        },
        {
            "buffer" : 0,
            "byteLength" : 144,
            "byteOffset" : 59836
        }
    ],
    "samplers" : [
        {
            "magFilter" : 9729,
            "minFilter" : 9987
        },
        {
            "magFilter" : 9729,
            "minFilter" : 9987,
            "wrapS" : 33071,
            "wrapT" : 33071
        }
    ],
    "buffers" : [
        {
            "byteLength" : 59980,
            "uri" : "data:application/octet-stream;base64,"
        }
    ]
}
